<svg width="200" height="100" viewBox="0 0 200 100" xmlns="http://www.w3.org/2000/svg">
  <!-- Geometric Shapes in Dark Navy Blue -->
  <polygon points="30,30 70,30 70,70 30,70" fill="#002F6C" />
  <polygon points="70,30 110,30 110,70 70,70" fill="#002F6C" />
  <polygon points="110,30 150,30 150,70 110,70" fill="#002F6C" />

  <!-- Colorful Overlapping Rectangles Slanted Upwards to the Left -->
  <defs>
    <linearGradient id="grad1" x1="0%" y1="0%" x2="100%" y2="100%">
      <stop offset="0%" style="stop-color:#4A154D; stop-opacity:1" />
      <stop offset="100%" style="stop-color:#E01E5A; stop-opacity:1" />
    </linearGradient>
    <filter id="shadow" x="0" y="0" width="150%" height="150%">
      <feOffset result="offOut" in="SourceAlpha" dx="3" dy="3" />
      <feGaussianBlur result="blurOut" in="offOut" stdDeviation="4" />
      <feBlend in="SourceGraphic" in2="blurOut" mode="normal" />
    </filter>
  </defs>

  <!-- Slanted Rectangles -->
  <rect x="20" y="40" width="60" height="60" fill="url(#grad1)" rx="10" filter="url(#shadow)" transform="rotate(-15, 50, 70)" />
  <rect x="80" y="20" width="60" height="60" fill="url(#grad1)" rx="10" filter="url(#shadow)" transform="rotate(-15, 110, 50)" />
  <rect x="140" y="0" width="60" height="60" fill="url(#grad1)" rx="10" filter="url(#shadow)" transform="rotate(-15, 170, 30)" />

  <!-- Add a thin white border to each colored rectangle for clarity -->
  <rect x="20" y="40" width="60" height="60" fill="none" stroke="#ffffff" stroke-width="2" rx="10" transform="rotate(-15, 50, 70)" />
  <rect x="80" y="20" width="60" height="60" fill="none" stroke="#ffffff" stroke-width="2" rx="10" transform="rotate(-15, 110, 50)" />
  <rect x="140" y="0" width="60" height="60" fill="none" stroke="#ffffff" stroke-width="2" rx="10" transform="rotate(-15, 170, 30)" />
</svg>
