<svg version="1.1" xmlns="http://www.w3.org/2000/svg" width="178" height="211">
<path d="M0 0 C58.74 0 117.48 0 178 0 C178 69.63 178 139.26 178 211 C119.26 211 60.52 211 0 211 C0 141.37 0 71.74 0 0 Z " fill="#000101" transform="translate(0,0)"/>
<path d="M0 0 C0.99261337 0.00222061 1.98522675 0.00444122 3.00791931 0.00672913 C4.12900589 0.00680466 5.25009247 0.00688019 6.40515137 0.00695801 C8.2348069 0.01469994 8.2348069 0.01469994 10.10142517 0.02259827 C11.96377052 0.02472069 11.96377052 0.02472069 13.86373901 0.02688599 C17.16982383 0.03154861 20.47584039 0.04053955 23.78190613 0.05158997 C27.15338042 0.06180625 30.52486175 0.06638407 33.89634705 0.07142639 C40.51550667 0.08248056 47.13463385 0.09923715 53.75376892 0.12025452 C53.77903782 6.93787346 53.79660137 13.75548041 53.80870056 20.57313538 C53.81374226 22.89442903 53.82057544 25.21571949 53.82920837 27.53700256 C53.84128117 30.86554246 53.84699871 34.19404054 53.85142517 37.52259827 C53.85658646 38.56737839 53.86174774 39.61215851 53.86706543 40.68859863 C53.86714096 41.6495192 53.86721649 42.61043976 53.86729431 43.60047913 C53.86951492 44.45097336 53.87173553 45.30146759 53.87402344 46.17773438 C53.75376892 48.12025452 53.75376892 48.12025452 52.75376892 49.12025452 C49.86233741 49.21549357 46.99484828 49.24578479 44.10313416 49.23377991 C42.74229202 49.23399895 42.74229202 49.23399895 41.35395813 49.23422241 C38.34006907 49.23352292 35.326241 49.22572886 32.31236267 49.21791077 C30.22870925 49.21604671 28.14505539 49.21462275 26.06140137 49.21362305 C20.56553446 49.20979686 15.06969379 49.19996572 9.57383728 49.18891907 C3.97040665 49.17870711 -1.63302821 49.17412589 -7.23646545 49.16908264 C-18.23973222 49.15834354 -29.24297947 49.14126591 -40.24623108 49.12025452 C-40.46798041 50.57660822 -40.67321805 52.03548408 -40.87123108 53.49525452 C-40.9872467 54.30736389 -41.10326233 55.11947327 -41.22279358 55.95619202 C-41.23052795 56.67033264 -41.23826233 57.38447327 -41.24623108 58.12025452 C-37.07257051 62.29391508 -29.52551336 61.4077057 -23.87123108 61.68275452 C-23.03978577 61.72593811 -22.20834045 61.7691217 -21.35169983 61.81361389 C-19.3166988 61.91887257 -17.28148405 62.01998524 -15.24623108 62.12025452 C-15.21731159 66.41190714 -15.19945989 70.70353487 -15.18373108 74.99525452 C-15.17535217 76.21857483 -15.16697327 77.44189514 -15.15834045 78.70228577 C-15.1551178 79.86888733 -15.15189514 81.03548889 -15.14857483 82.23744202 C-15.14333801 83.3162262 -15.1381012 84.39501038 -15.13270569 85.50648499 C-15.24623108 88.12025452 -15.24623108 88.12025452 -16.24623108 90.12025452 C-19.57551232 91.23001493 -22.04650465 91.24056347 -25.55360413 91.23377991 C-26.85472641 91.23370438 -28.15584869 91.23362885 -29.49639893 91.23355103 C-30.91691628 91.22844437 -32.33743325 91.22322837 -33.75794983 91.21791077 C-35.2109777 91.21604543 -36.66400619 91.21462207 -38.11703491 91.21362305 C-41.9392928 91.20980698 -45.76151263 91.19998445 -49.58375549 91.18891907 C-53.48491399 91.17868539 -57.38607865 91.17412123 -61.2872467 91.16908264 C-68.94025884 91.15836137 -76.59323962 91.14129587 -84.24623108 91.12025452 C-85.41223629 88.7882441 -85.37889138 87.41088013 -85.39149475 84.81336975 C-85.3978746 83.92161545 -85.40425446 83.02986115 -85.41082764 82.11108398 C-85.41194046 81.1434462 -85.41305328 80.17580841 -85.41419983 79.17884827 C-85.41752823 78.18200516 -85.42085663 77.18516205 -85.42428589 76.15811157 C-85.42935743 74.04222577 -85.43169414 71.92633194 -85.43153381 69.81044006 C-85.43370577 66.59521463 -85.45181874 63.38034041 -85.47084045 60.16517639 C-85.47377735 58.10723485 -85.47576016 56.04929169 -85.47669983 53.99134827 C-85.48388535 53.0378801 -85.49107086 52.08441193 -85.49847412 51.10205078 C-85.46361613 40.74854252 -84.03937014 33.28209659 -76.80873108 25.49525452 C-67.53704106 16.90198084 -61.07952895 15.67394197 -48.65638733 15.82728577 C-47.35672531 15.83153061 -46.05706329 15.83577545 -44.71801758 15.84014893 C-41.28363849 15.85153503 -37.84964757 15.88094702 -34.41542053 15.91426086 C-30.90269723 15.94509744 -27.38991045 15.95868311 -23.87709045 15.97377014 C-16.99997913 16.00582388 -10.12312381 16.05694336 -3.24623108 16.12025452 C-3.25783264 15.04904358 -3.2694342 13.97783264 -3.28138733 12.87416077 C-3.29076407 11.47702708 -3.29986439 10.07989153 -3.30873108 8.68275452 C-3.31710999 7.97570374 -3.32548889 7.26865295 -3.3341217 6.54017639 C-3.34276696 4.73331892 -3.29843119 2.92637849 -3.24623108 1.12025452 C-2.24623108 0.12025452 -2.24623108 0.12025452 0 0 Z " fill="#759274" transform="translate(101.24623107910156,31.879745483398438)"/>
<path d="M0 0 C1.09783813 -0.00315216 2.19567627 -0.00630432 3.32678223 -0.009552 C5.11892151 -0.00651566 5.11892151 -0.00651566 6.94726562 -0.00341797 C8.16426147 -0.00437469 9.38125732 -0.00533142 10.63513184 -0.00631714 C13.21427461 -0.00699919 15.79341909 -0.00514319 18.37255859 -0.00097656 C22.33630198 0.00437131 26.29993204 -0.00092076 30.26367188 -0.00732422 C32.76237004 -0.00666344 35.26106814 -0.00538229 37.75976562 -0.00341797 C38.95452515 -0.0054422 40.14928467 -0.00746643 41.38024902 -0.009552 C42.47808716 -0.00639984 43.57592529 -0.00324768 44.70703125 0 C46.16477966 0.00119339 46.16477966 0.00119339 47.65197754 0.00241089 C49.85351562 0.12939453 49.85351562 0.12939453 50.85351562 1.12939453 C50.96225203 2.61067398 51.00254834 4.09705958 51.01464844 5.58227539 C51.02425598 6.53093979 51.03386353 7.47960419 51.04376221 8.45701599 C51.04801208 9.49229935 51.05226196 10.5275827 51.05664062 11.59423828 C51.0623407 12.6567128 51.06804077 13.71918732 51.07391357 14.81385803 C51.08338601 17.0727539 51.08990641 19.33166372 51.09375 21.59057617 C51.10338694 25.0210864 51.13436058 28.45097999 51.16601562 31.88134766 C51.17255238 34.07730765 51.17780021 36.27327192 51.18164062 38.46923828 C51.19398743 39.48630356 51.20633423 40.50336884 51.21905518 41.55125427 C51.18950357 51.17203613 49.69560412 59.12042583 42.85351562 66.12939453 C41.92539063 67.21220703 41.92539063 67.21220703 40.97851562 68.31689453 C34.57775317 73.77636839 26.75727358 74.26146187 18.70507812 74.22705078 C17.71899063 74.22492836 17.71899063 74.22492836 16.71298218 74.22276306 C14.63477831 74.21721215 12.55668635 74.20466918 10.47851562 74.19189453 C9.06054844 74.18687317 7.64257955 74.18231138 6.22460938 74.17822266 C2.76754241 74.1672589 -0.68946004 74.15002874 -4.14648438 74.12939453 C-4.14648438 73.46939453 -4.14648438 72.80939453 -4.14648438 72.12939453 C-4.80648437 72.12939453 -5.46648437 72.12939453 -6.14648438 72.12939453 C-6.16960962 62.88941902 -6.18740038 53.64945339 -6.19829655 44.4094553 C-6.20352498 40.11939538 -6.2106219 35.8293552 -6.22192383 31.53930664 C-6.23275413 27.40260053 -6.23876151 23.26591345 -6.24136162 19.12919426 C-6.24321561 17.54747149 -6.24683573 15.96574982 -6.25221443 14.38403511 C-6.25942677 12.17616615 -6.26047524 9.9683768 -6.26000977 7.76049805 C-6.26223038 6.50141129 -6.26445099 5.24232452 -6.26673889 3.94508362 C-6.06357348 -0.81191544 -4.27783939 0.00350207 0 0 Z " fill="#315358" transform="translate(104.146484375,93.87060546875)"/>
<path d="M0 0 C1.25102509 0.00141495 2.50205017 0.0028299 3.79098511 0.00428772 C7.08213526 0.00890532 10.37323439 0.01785572 13.66436768 0.0289917 C17.03665551 0.039307 20.40895087 0.0438068 23.78125 0.04882812 C30.37241542 0.05980419 36.9635473 0.0765022 43.5546875 0.09765625 C44.70070244 2.38968613 44.68705989 3.69222315 44.69995117 6.24023438 C44.70633102 7.09452026 44.71271088 7.94880615 44.71928406 8.82897949 C44.72039688 9.75295532 44.7215097 10.67693115 44.72265625 11.62890625 C44.72764885 13.04919128 44.72764885 13.04919128 44.73274231 14.49816895 C44.73780996 16.50219231 44.74015069 18.50622414 44.73999023 20.51025391 C44.74217856 23.58510128 44.76034104 26.65959106 44.77929688 29.734375 C44.78223039 31.67838418 44.78421547 33.62239508 44.78515625 35.56640625 C44.79234177 36.49038208 44.79952728 37.41435791 44.80693054 38.36633301 C44.80385391 39.2206189 44.80077728 40.07490479 44.79760742 40.95507812 C44.79903244 41.70849487 44.80045746 42.46191162 44.80192566 43.23815918 C44.5546875 45.09765625 44.5546875 45.09765625 42.5546875 47.09765625 C40.70433044 47.35835266 40.70433044 47.35835266 38.43139648 47.37231445 C37.57968369 47.38184647 36.72797089 47.39137848 35.85044861 47.40119934 C34.46461327 47.39983223 34.46461327 47.39983223 33.05078125 47.3984375 C32.09833023 47.40272263 31.14587921 47.40700775 30.16456604 47.41142273 C28.14284052 47.41717563 26.1210943 47.41765926 24.09936523 47.41333008 C21.02876533 47.41019361 17.95915089 47.433535 14.88867188 47.45898438 C12.92187621 47.46125984 10.95507797 47.46195972 8.98828125 47.4609375 C7.62370033 47.47475212 7.62370033 47.47475212 6.23155212 47.48884583 C-2.43194435 47.42708745 -9.55715165 45.64040696 -15.9453125 39.63671875 C-21.45224486 33.98637669 -23.5983418 28.99187763 -23.89453125 21.078125 C-23.93771484 19.97404297 -23.98089844 18.86996094 -24.02539062 17.73242188 C-24.06083984 16.59482422 -24.09628906 15.45722656 -24.1328125 14.28515625 C-24.17986328 13.12822266 -24.22691406 11.97128906 -24.27539062 10.77929688 C-24.50063137 4.49101835 -24.50063137 4.49101835 -24.4453125 2.09765625 C-20.11254098 -2.23511527 -5.68910144 -0.02456765 0 0 Z " fill="#314243" transform="translate(41.4453125,134.90234375)"/>
<path d="M0 0 C1.67656174 -0.00472824 1.67656174 -0.00472824 3.38699341 -0.009552 C5.1964595 -0.00651566 5.1964595 -0.00651566 7.04248047 -0.00341797 C8.27884247 -0.00437469 9.51520447 -0.00533142 10.78903198 -0.00631714 C14.07332105 -0.00717252 17.35756291 -0.00314343 20.6418457 0.00244141 C22.66065977 0.00439549 24.67943049 0.00244474 26.69824219 -0.00097656 C30.56300904 -0.00712688 34.427711 -0.00641325 38.29248047 -0.00341797 C39.50283966 -0.0054422 40.71319885 -0.00746643 41.9602356 -0.009552 C43.0716391 -0.00639984 44.1830426 -0.00324768 45.328125 0 C46.80347214 0.00119339 46.80347214 0.00119339 48.30862427 0.00241089 C50.53466797 0.12939453 50.53466797 0.12939453 51.53466797 1.12939453 C51.62735796 2.48034435 51.65214123 3.83606544 51.64819336 5.19018555 C51.64811783 6.05100235 51.6480423 6.91181915 51.64796448 7.79872131 C51.64280319 8.73413254 51.63764191 9.66954376 51.63232422 10.63330078 C51.63090927 11.58631577 51.62949432 12.53933075 51.6280365 13.52122498 C51.62241949 16.57814618 51.60986413 19.6349953 51.59716797 22.69189453 C51.59215516 24.75895077 51.58759187 26.82600815 51.58349609 28.89306641 C51.57244453 33.97187041 51.55516852 39.05062023 51.53466797 44.12939453 C49.55466797 44.62439453 49.55466797 44.62439453 47.53466797 45.12939453 C46.40966797 40.37939453 46.40966797 40.37939453 47.53466797 38.12939453 C46.87466797 38.12939453 46.21466797 38.12939453 45.53466797 38.12939453 C45.53466797 37.46939453 45.53466797 36.80939453 45.53466797 36.12939453 C44.87466797 36.12939453 44.21466797 36.12939453 43.53466797 36.12939453 C41.31928335 29.72939453 41.31928335 29.72939453 42.40966797 26.69189453 C42.78091797 26.17626953 43.15216797 25.66064453 43.53466797 25.12939453 C42.87466797 24.79939453 42.21466797 24.46939453 41.53466797 24.12939453 C42.02966797 22.64439453 42.02966797 22.64439453 42.53466797 21.12939453 C41.87466797 21.12939453 41.21466797 21.12939453 40.53466797 21.12939453 C40.03966797 22.61439453 40.03966797 22.61439453 39.53466797 24.12939453 C31.62274353 25.56009111 31.62274353 25.56009111 27.53466797 23.94189453 C25.53466797 22.12939453 25.53466797 22.12939453 24.53466797 18.12939453 C22.22466797 19.77939453 19.91466797 21.42939453 17.53466797 23.12939453 C16.87466797 22.79939453 16.21466797 22.46939453 15.53466797 22.12939453 C15.69966797 21.20126953 15.86466797 20.27314453 16.03466797 19.31689453 C16.61215185 16.173181 16.61215185 16.173181 16.53466797 13.12939453 C16.53466797 12.13939453 16.53466797 11.14939453 16.53466797 10.12939453 C15.87466797 10.12939453 15.21466797 10.12939453 14.53466797 10.12939453 C14.20466797 9.46939453 13.87466797 8.80939453 13.53466797 8.12939453 C12.54466797 9.61439453 12.54466797 9.61439453 11.53466797 11.12939453 C10.21466797 10.79939453 8.89466797 10.46939453 7.53466797 10.12939453 C7.20466797 10.78939453 6.87466797 11.44939453 6.53466797 12.12939453 C6.53466797 11.13939453 6.53466797 10.14939453 6.53466797 9.12939453 C5.79216797 9.50064453 5.04966797 9.87189453 4.28466797 10.25439453 C1.53466797 11.12939453 1.53466797 11.12939453 -0.46533203 10.31689453 C-1.45533203 9.72908203 -1.45533203 9.72908203 -2.46533203 9.12939453 C-4.12273918 8.75271109 -5.78878474 8.40881908 -7.46533203 8.12939453 C-7.79533203 5.81939453 -8.12533203 3.50939453 -8.46533203 1.12939453 C-5.37168698 0.09817952 -3.24215959 0.00261831 0 0 Z " fill="#6F674D" transform="translate(34.46533203125,135.87060546875)"/>
<path d="M0 0 C0.33 0 0.66 0 1 0 C1.33 14.85 1.66 29.7 2 45 C8.29123764 45.62912376 14.32341094 46.16572679 20.60546875 46.203125 C21.37377518 46.20882507 22.1420816 46.21452515 22.93367004 46.22039795 C24.5393439 46.2297478 26.14503607 46.23634138 27.75073242 46.24023438 C30.19288177 46.25002157 32.63421604 46.28117091 35.07617188 46.3125 C36.64843259 46.31902486 38.22069921 46.32427736 39.79296875 46.328125 C40.87290352 46.3466452 40.87290352 46.3466452 41.97465515 46.36553955 C47.12910753 46.3430536 50.46416399 45.22257715 55 43 C56.66666667 42.33333333 58.33333333 41.66666667 60 41 C60.66 40.67 61.32 40.34 62 40 C61.32829194 36.1936543 60.27253436 32.64793184 59 29 C59.99 28.67 60.98 28.34 62 28 C63.64826111 30.96687001 64.44271087 33.65626525 65 37 C65.99 37 66.98 37 68 37 C68 34.03 68 31.06 68 28 C66.68 28 65.36 28 64 28 C64 27.01 64 26.02 64 25 C63.34 25 62.68 25 62 25 C62 24.01 62 23.02 62 22 C61.01 21.67 60.02 21.34 59 21 C59 20.34 59 19.68 59 19 C62.63 19 66.26 19 70 19 C70.02891949 23.29165262 70.04677118 27.58328036 70.0625 31.875 C70.07087891 33.09832031 70.07925781 34.32164063 70.08789062 35.58203125 C70.09111328 36.74863281 70.09433594 37.91523437 70.09765625 39.1171875 C70.10289307 40.19597168 70.10812988 41.27475586 70.11352539 42.38623047 C70 45 70 45 69 47 C65.67071876 48.10976041 63.19972643 48.12030895 59.69262695 48.11352539 C58.39150467 48.11344986 57.09038239 48.11337433 55.74983215 48.11329651 C54.3293148 48.10818985 52.90879783 48.10297385 51.48828125 48.09765625 C50.03525338 48.09579091 48.58222489 48.09436756 47.12919617 48.09336853 C43.30693828 48.08955246 39.48471845 48.07972993 35.66247559 48.06866455 C31.76131709 48.05843087 27.86015243 48.05386671 23.95898438 48.04882812 C16.30597224 48.03810686 8.65299146 48.02104135 1 48 C-0.18695418 45.62609164 -0.12075833 44.19755049 -0.11352539 41.55029297 C-0.11344986 40.62948944 -0.11337433 39.70868591 -0.11329651 38.75997925 C-0.10813522 37.76410797 -0.10297394 36.76823669 -0.09765625 35.7421875 C-0.0962413 34.72399933 -0.09482635 33.70581116 -0.09336853 32.6567688 C-0.087759 29.39614965 -0.07520488 26.13559849 -0.0625 22.875 C-0.05748623 20.66796974 -0.05292311 18.46093841 -0.04882812 16.25390625 C-0.03778648 10.83591419 -0.02103905 5.41796195 0 0 Z " fill="#605D40" transform="translate(16,75)"/>
<path d="M0 0 C9.24 0 18.48 0 28 0 C28 7 28 7 27 9 C26.01 9 25.02 9 24 9 C23.7525 9.639375 23.505 10.27875 23.25 10.9375 C22 13 22 13 20.3125 13.625 C19.549375 13.74875 18.78625 13.8725 18 14 C16.205625 14.556875 16.205625 14.556875 14.375 15.125 C11 16 11 16 9 15 C9 14.34 9 13.68 9 13 C8.34 13 7.68 13 7 13 C6.67 12.34 6.34 11.68 6 11 C2.97065509 10.34227572 2.97065509 10.34227572 0 10 C0.33 8.68 0.66 7.36 1 6 C1.66 6 2.32 6 3 6 C2.65555119 3.52733235 2.65555119 3.52733235 2 1 C1.34 0.67 0.68 0.34 0 0 Z " fill="#957C55" transform="translate(57,136)"/>
<path d="M0 0 C0 0.66 0 1.32 0 2 C-0.99 2.495 -0.99 2.495 -2 3 C3.52760359 5.10575375 8.06997733 6.37851209 14 6 C14 5.34 14 4.68 14 4 C17.3 4 20.6 4 24 4 C24.33 5.98 24.66 7.96 25 10 C24.34 10 23.68 10 23 10 C23 11.32 23 12.64 23 14 C24.918125 14.185625 24.918125 14.185625 26.875 14.375 C30.75 14.75 30.75 14.75 33 17 C33 17.99 33 18.98 33 20 C33.9075 19.9175 34.815 19.835 35.75 19.75 C39 20 39 20 41.375 22 C41.91125 22.66 42.4475 23.32 43 24 C35.08807556 25.43069658 35.08807556 25.43069658 31 23.8125 C29 22 29 22 28 18 C25.69 19.65 23.38 21.3 21 23 C20.34 22.67 19.68 22.34 19 22 C19.165 21.071875 19.33 20.14375 19.5 19.1875 C20.07748388 16.04378647 20.07748388 16.04378647 20 13 C20 12.01 20 11.02 20 10 C19.34 10 18.68 10 18 10 C17.67 9.34 17.34 8.68 17 8 C16.01 9.485 16.01 9.485 15 11 C13.68 10.67 12.36 10.34 11 10 C10.67 10.66 10.34 11.32 10 12 C10 11.01 10 10.02 10 9 C9.2575 9.37125 8.515 9.7425 7.75 10.125 C5 11 5 11 3 10.1875 C2.01 9.5996875 2.01 9.5996875 1 9 C-0.65740715 8.62331656 -2.32345271 8.27942455 -4 8 C-4.33 5.69 -4.66 3.38 -5 1 C-2 0 -2 0 0 0 Z " fill="#5B5B4C" transform="translate(31,136)"/>
<path d="M0 0 C0.66 0 1.32 0 2 0 C2.33 0.66 2.66 1.32 3 2 C3.99 1.67 4.98 1.34 6 1 C6 1.99 6 2.98 6 4 C6.66 4.33 7.32 4.66 8 5 C8 5.66 8 6.32 8 7 C9.32 6.34 10.64 5.68 12 5 C12 5.99 12 6.98 12 8 C12.66 7.67 13.32 7.34 14 7 C17.5 6.8125 17.5 6.8125 21 7 C21.66 7.66 22.32 8.32 23 9 C23.99 9 24.98 9 26 9 C26.556875 9.32613281 27.11375 9.65226562 27.6875 9.98828125 C31.06442906 11.46568771 34.38323155 11.24974511 38 11.1875 C38.7115625 11.18685547 39.423125 11.18621094 40.15625 11.18554688 C43.56855376 11.1568988 46.73882668 11.06157986 50 10 C50 10.66 50 11.32 50 12 C46.34681154 13.21772949 42.98654968 13.14320683 39.18359375 13.1328125 C38.02694969 13.13424759 38.02694969 13.13424759 36.84693909 13.13571167 C35.21200479 13.13639227 33.57706778 13.13454634 31.94213867 13.13037109 C29.47112738 13.12507211 27.00030213 13.13029349 24.52929688 13.13671875 C16.63186361 13.14051737 8.83583814 13.11157744 1 12 C0 11 0 11 -0.09765625 8.49609375 C-0.08605469 7.48675781 -0.07445313 6.47742188 -0.0625 5.4375 C-0.05347656 4.42558594 -0.04445313 3.41367188 -0.03515625 2.37109375 C-0.02355469 1.58863281 -0.01195313 0.80617188 0 0 Z " fill="#9C8355" transform="translate(17,109)"/>
<path d="M0 0 C4.29165262 -0.02891949 8.58328036 -0.04677118 12.875 -0.0625 C14.70998047 -0.07506836 14.70998047 -0.07506836 16.58203125 -0.08789062 C18.33193359 -0.09272461 18.33193359 -0.09272461 20.1171875 -0.09765625 C21.73536377 -0.10551147 21.73536377 -0.10551147 23.38623047 -0.11352539 C26 0 26 0 28 1 C28.625 3.5625 28.625 3.5625 29 6 C28.01 6.495 28.01 6.495 27 7 C26.67 7.99 26.34 8.98 26 10 C27.98 10 29.96 10 32 10 C31.25 12.4375 31.25 12.4375 30 15 C28.0625 15.9375 28.0625 15.9375 26 16 C25.01 15.34 24.02 14.68 23 14 C23 12.68 23 11.36 23 10 C23.66 10 24.32 10 25 10 C24.67 8.02 24.34 6.04 24 4 C22.9171875 4.2784375 22.9171875 4.2784375 21.8125 4.5625 C18.87173027 5.01995307 16.85896942 4.73516357 14 4 C14 4.66 14 5.32 14 6 C8.0558452 7.39118517 3.52539622 6.69155567 -2 4 C-2.33 3.34 -2.66 2.68 -3 2 C-2.01 2 -1.02 2 0 2 C0 1.34 0 0.68 0 0 Z " fill="#766A4C" transform="translate(31,136)"/>
<path d="M0 0 C-0.33 0.99 -0.66 1.98 -1 3 C-1.62648438 3.04898438 -2.25296875 3.09796875 -2.8984375 3.1484375 C-4.12433594 3.26058594 -4.12433594 3.26058594 -5.375 3.375 C-6.18710937 3.44460937 -6.99921875 3.51421875 -7.8359375 3.5859375 C-10.20334191 3.82892588 -10.20334191 3.82892588 -12 6 C-12.33 5.67 -12.66 5.34 -13 5 C-13.23589844 5.58523437 -13.47179687 6.17046875 -13.71484375 6.7734375 C-15.28150372 9.48771161 -17.03808829 10.78538055 -19.5625 12.625 C-22.80810703 14.86379366 -22.80810703 14.86379366 -25 18 C-25 19.32 -25 20.64 -25 22 C-25.66 22 -26.32 22 -27 22 C-26.97679687 22.72445312 -26.95359375 23.44890625 -26.9296875 24.1953125 C-26.82981206 29.54578244 -26.83544252 33.99446082 -29 39 C-29.33 39 -29.66 39 -30 39 C-30.11760715 35.83365364 -30.18771024 32.66787926 -30.25 29.5 C-30.30027344 28.1696875 -30.30027344 28.1696875 -30.3515625 26.8125 C-30.46273744 19.25260432 -28.32686308 14.61956479 -24.3125 8.375 C-16.75973828 0.61810959 -10.7719627 -0.89905098 0 0 Z " fill="#C5AC56" transform="translate(47,50)"/>
<path d="M0 0 C0.33 0 0.66 0 1 0 C1 11.88 1 23.76 1 36 C-0.98 36.495 -0.98 36.495 -3 37 C-4.125 32.25 -4.125 32.25 -3 30 C-3.66 30 -4.32 30 -5 30 C-5 29.34 -5 28.68 -5 28 C-5.66 28 -6.32 28 -7 28 C-9.21538462 21.6 -9.21538462 21.6 -8.125 18.5625 C-7.75375 18.046875 -7.3825 17.53125 -7 17 C-7.66 16.67 -8.32 16.34 -9 16 C-8.67 15.01 -8.34 14.02 -8 13 C-8.66 13 -9.32 13 -10 13 C-10.33 13.66 -10.66 14.32 -11 15 C-11 14.01 -11 13.02 -11 12 C-9.68 11.67 -8.36 11.34 -7 11 C-7 10.01 -7 9.02 -7 8 C-6.34 7.67 -5.68 7.34 -5 7 C-5 6.34 -5 5.68 -5 5 C-4.01 4.67 -3.02 4.34 -2 4 C-1.67 6.31 -1.34 8.62 -1 11 C-1.66 11 -2.32 11 -3 11 C-3 12.65 -3 14.3 -3 16 C-3.33 15.34 -3.66 14.68 -4 14 C-4.66 14 -5.32 14 -6 14 C-5.67 14.763125 -5.34 15.52625 -5 16.3125 C-4 19 -4 19 -4 22 C-2.68 21.67 -1.36 21.34 0 21 C0 14.07 0 7.14 0 0 Z " fill="#575747" transform="translate(85,144)"/>
<path d="M0 0 C18.48 0 36.96 0 56 0 C56.020625 7.899375 56.04125 15.79875 56.0625 23.9375 C56.071604 26.4343335 56.08070801 28.93116699 56.09008789 31.50366211 C56.0930069 33.46988877 56.09555549 35.43611604 56.09765625 37.40234375 C56.10277222 38.43363403 56.10788818 39.46492432 56.11315918 40.52746582 C56.11334045 41.98908142 56.11334045 41.98908142 56.11352539 43.48022461 C56.115746 44.33071884 56.11796661 45.18121307 56.12025452 46.05747986 C56 48 56 48 55 49 C53.31391034 49.07205511 51.62499341 49.08386068 49.9375 49.0625 C49.01839844 49.05347656 48.09929687 49.04445312 47.15234375 49.03515625 C46.44207031 49.02355469 45.73179687 49.01195312 45 49 C45 48.67 45 48.34 45 48 C49.95 47.505 49.95 47.505 55 47 C54.87973112 42.69893726 54.75540995 38.39801425 54.62768555 34.09716797 C54.58496468 32.6408183 54.54326102 31.18443836 54.50268555 29.72802734 C54.44342049 27.60765517 54.38021971 25.48742716 54.31640625 23.3671875 C54.26141968 21.46622314 54.26141968 21.46622314 54.20532227 19.52685547 C53.92491403 13.34453735 53.44092477 7.17294674 53 1 C35.51 1 18.02 1 0 1 C0 0.67 0 0.34 0 0 Z " fill="#3D6F70" transform="translate(99,32)"/>
<path d="M0 0 C1.33130115 0.34135927 2.66358148 0.67925956 4 1 C4.33 2.32 4.66 3.64 5 5 C5.9075 4.9175 6.815 4.835 7.75 4.75 C11 5 11 5 13.375 7 C13.91125 7.66 14.4475 8.32 15 9 C7.08807556 10.43069658 7.08807556 10.43069658 3 8.8125 C1 7 1 7 0 3 C-2.31 4.65 -4.62 6.3 -7 8 C-7.66 7.67 -8.32 7.34 -9 7 C-8.814375 6.05125 -8.62875 5.1025 -8.4375 4.125 C-7.71313368 1.10131207 -7.71313368 1.10131207 -9 -1 C-5.80188585 -2.59905707 -3.30385238 -1.0253335 0 0 Z " fill="#4C5349" transform="translate(59,151)"/>
<path d="M0 0 C3.63 0 7.26 0 11 0 C11 8.58 11 17.16 11 26 C10.67 26 10.34 26 10 26 C9.67 20.39 9.34 14.78 9 9 C7.68 9 6.36 9 5 9 C5 8.01 5 7.02 5 6 C4.34 6 3.68 6 3 6 C3 5.01 3 4.02 3 3 C2.01 2.67 1.02 2.34 0 2 C0 1.34 0 0.68 0 0 Z " fill="#506A5D" transform="translate(75,94)"/>
<path d="M0 0 C1.125 6.75 1.125 6.75 0 9 C0.28112064 11.00800456 0.61067967 13.01014051 1 15 C1.66 15 2.32 15 3 15 C3 15.66 3 16.32 3 17 C3.66 17 4.32 17 5 17 C5 19.31 5 21.62 5 24 C4.34 24 3.68 24 3 24 C2.71125 23.195625 2.4225 22.39125 2.125 21.5625 C1.26737432 18.8673532 1.26737432 18.8673532 -1 18 C-1.12375 17.030625 -1.2475 16.06125 -1.375 15.0625 C-1.684375 13.5465625 -1.684375 13.5465625 -2 12 C-3.93383287 10.69934079 -3.93383287 10.69934079 -6 10 C-6.33 9.34 -6.66 8.68 -7 8 C-6.34 8 -5.68 8 -5 8 C-5.2475 7.4225 -5.495 6.845 -5.75 6.25 C-5.8325 5.5075 -5.915 4.765 -6 4 C-2.77777778 0 -2.77777778 0 0 0 Z " fill="#424B44" transform="translate(77,157)"/>
<path d="M0 0 C-0.33 0.99 -0.66 1.98 -1 3 C-1.62648438 3.04898438 -2.25296875 3.09796875 -2.8984375 3.1484375 C-4.12433594 3.26058594 -4.12433594 3.26058594 -5.375 3.375 C-6.18710937 3.44460937 -6.99921875 3.51421875 -7.8359375 3.5859375 C-10.20334191 3.82892588 -10.20334191 3.82892588 -12 6 C-14.625 5.625 -14.625 5.625 -17 5 C-17.33 5.99 -17.66 6.98 -18 8 C-21.0625 9.1875 -21.0625 9.1875 -24 10 C-19.64504203 -0.27323418 -9.87553149 -0.82423292 0 0 Z " fill="#A6AA6E" transform="translate(47,50)"/>
<path d="M0 0 C2.31 0.33 4.62 0.66 7 1 C7 1.66 7 2.32 7 3 C7.66 3.33 8.32 3.66 9 4 C8.34 5.32 7.68 6.64 7 8 C6.01 7.67 5.02 7.34 4 7 C4.33 8.32 4.66 9.64 5 11 C5.66 11 6.32 11 7 11 C7 11.66 7 12.32 7 13 C5.125 13.625 5.125 13.625 3 14 C2.34 13.34 1.68 12.68 1 12 C1.66 11.67 2.32 11.34 3 11 C2.525625 10.5875 2.05125 10.175 1.5625 9.75 C-0.21751119 7.75638747 -0.68061539 6.634923 -1 4 C-0.5625 1.75 -0.5625 1.75 0 0 Z " fill="#967A4F" transform="translate(65,138)"/>
<path d="M0 0 C0.66 0 1.32 0 2 0 C2.33 0.66 2.66 1.32 3 2 C3.99 1.67 4.98 1.34 6 1 C6 1.99 6 2.98 6 4 C6.66 4.33 7.32 4.66 8 5 C8 5.66 8 6.32 8 7 C9.32 6.34 10.64 5.68 12 5 C12 5.99 12 6.98 12 8 C8.7 8 5.4 8 2 8 C2 8.66 2 9.32 2 10 C1.34 10 0.68 10 0 10 C0 6.7 0 3.4 0 0 Z " fill="#B18D57" transform="translate(17,109)"/>
<path d="M0 0 C0.763125 0.515625 1.52625 1.03125 2.3125 1.5625 C4.94222864 3.37110847 4.94222864 3.37110847 7.8125 2.1875 C8.534375 1.795625 9.25625 1.40375 10 1 C12 4 12 4 12 6 C11.34 6 10.68 6 10 6 C9.34 7.32 8.68 8.64 8 10 C7.34 9.67 6.68 9.34 6 9 C6 8.01 6 7.02 6 6 C4.68 5.67 3.36 5.34 2 5 C2 4.34 2 3.68 2 3 C1.01 3.33 0.02 3.66 -1 4 C-1.33 3.01 -1.66 2.02 -2 1 C-1.34 0.67 -0.68 0.34 0 0 Z " fill="#334645" transform="translate(40,155)"/>
<path d="M0 0 C0.33 0 0.66 0 1 0 C1 5.94 1 11.88 1 18 C-0.32 18.33 -1.64 18.66 -3 19 C-3.66 16.36 -4.32 13.72 -5 11 C-4.34 11 -3.68 11 -3 11 C-2.67 10.01 -2.34 9.02 -2 8 C-1.34 8 -0.68 8 0 8 C-0.185625 7.4225 -0.37125 6.845 -0.5625 6.25 C-1.04023546 3.79307475 -0.75729364 2.35602466 0 0 Z " fill="#6A6554" transform="translate(84,147)"/>
<path d="M0 0 C0.74886475 0.00523682 1.49772949 0.01047363 2.26928711 0.01586914 C3.07817383 0.0190918 3.88706055 0.02231445 4.72045898 0.02563477 C5.5705957 0.03401367 6.42073242 0.04239258 7.29663086 0.05102539 C8.15063477 0.05553711 9.00463867 0.06004883 9.88452148 0.06469727 C12.00108749 0.07652166 14.11761771 0.0944577 16.23413086 0.11352539 C15.90413086 0.77352539 15.57413086 1.43352539 15.23413086 2.11352539 C13.95538086 2.07227539 12.67663086 2.03102539 11.35913086 1.98852539 C9.21541594 1.87139667 9.21541594 1.87139667 7.23413086 2.11352539 C6.57413086 2.77352539 5.91413086 3.43352539 5.23413086 4.11352539 C3.24591773 4.51116802 1.24468747 4.85127888 -0.76586914 5.11352539 C-1.42586914 3.79352539 -2.08586914 2.47352539 -2.76586914 1.11352539 C-1.76586914 0.11352539 -1.76586914 0.11352539 0 0 Z " fill="#847557" transform="translate(39.765869140625,135.886474609375)"/>
<path d="M0 0 C3.375 -0.125 3.375 -0.125 7 0 C7.66 0.66 8.32 1.32 9 2 C9.99 2 10.98 2 12 2 C13.6875 3.5 13.6875 3.5 15 5 C12.87527424 5.05386629 10.75016348 5.09273071 8.625 5.125 C6.84996094 5.15980469 6.84996094 5.15980469 5.0390625 5.1953125 C2 5 2 5 0 3 C0 2.01 0 1.02 0 0 Z " fill="#B28D54" transform="translate(31,116)"/>
<path d="M0 0 C0.66 0.33 1.32 0.66 2 1 C2 1.99 2 2.98 2 4 C2.99 4 3.98 4 5 4 C4.67 5.32 4.34 6.64 4 8 C3.34 8 2.68 8 2 8 C2.33 9.32 2.66 10.64 3 12 C2.34 12 1.68 12 1 12 C1 12.66 1 13.32 1 14 C1.66 14.33 2.32 14.66 3 15 C1.68 14.67 0.36 14.34 -1 14 C-0.979375 13.113125 -0.95875 12.22625 -0.9375 11.3125 C-0.88359866 8.07804156 -0.88359866 8.07804156 -1.625 5.3125 C-2 3 -2 3 0 0 Z " fill="#9F985F" transform="translate(47,84)"/>
<path d="M0 0 C0.33 0 0.66 0 1 0 C1.21192221 5.19209404 0.5912689 9.126739 -1 14 C-2.32 13.34 -3.64 12.68 -5 12 C-5 12.66 -5 13.32 -5 14 C-6.65 14.66 -8.3 15.32 -10 16 C-10.66 15.01 -11.32 14.02 -12 13 C-9.66785852 11.79371992 -7.50357861 10.8345262 -5 10 C-4.67 9.34 -4.34 8.68 -4 8 C-3.01 8 -2.02 8 -1 8 C-0.67 5.36 -0.34 2.72 0 0 Z " fill="#7B6D53" transform="translate(85,137)"/>
<path d="M0 0 C0.99 0 1.98 0 3 0 C2.90460938 0.73605469 2.80921875 1.47210938 2.7109375 2.23046875 C2.60007812 3.20628906 2.48921875 4.18210937 2.375 5.1875 C2.25898437 6.15042969 2.14296875 7.11335938 2.0234375 8.10546875 C1.99805058 11.24075323 2.65640717 13.19486535 4 16 C2.68 16.99 1.36 17.98 0 19 C0 12.73 0 6.46 0 0 Z " fill="#4D6D68" transform="translate(99,95)"/>
<path d="M0 0 C3 3 3 3 3.14453125 6.7578125 C3.05032448 8.21470025 2.93902836 9.67056286 2.8125 11.125 C2.76802734 11.86621094 2.72355469 12.60742188 2.67773438 13.37109375 C2.53819118 15.25578821 2.27809209 17.13071931 2 19 C1.34 19.33 0.68 19.66 0 20 C0 13.4 0 6.8 0 0 Z " fill="#394E50" transform="translate(99,136)"/>
<path d="M0 0 C1.125 3.75 1.125 3.75 0 6 C-0.13450152 9.49703961 -0.07591929 12.62799546 0.625 16.0625 C1.07232848 19.56657309 0.3118231 21.75902529 -1 25 C-1.33 25 -1.66 25 -2 25 C-2.05834353 21.77090994 -2.09371115 18.54195662 -2.125 15.3125 C-2.14175781 14.40048828 -2.15851562 13.48847656 -2.17578125 12.54882812 C-2.20936169 7.93151773 -2.23556185 4.18067669 0 0 Z " fill="#B19357" transform="translate(19,64)"/>
<path d="M0 0 C0.5671875 0.309375 1.134375 0.61875 1.71875 0.9375 C5.01935509 2.47476812 7.88566344 2.11383737 11.5 2 C16.07570152 1.85588342 19.01153511 1.77591639 23 4 C19.04180389 4.08678303 15.08385066 4.14031733 11.125 4.1875 C9.43310547 4.22520508 9.43310547 4.22520508 7.70703125 4.26367188 C6.09248047 4.27817383 6.09248047 4.27817383 4.4453125 4.29296875 C2.95281982 4.31653442 2.95281982 4.31653442 1.43017578 4.34057617 C0.62821777 4.22818604 -0.17374023 4.1157959 -1 4 C-1.66 3.01 -2.32 2.02 -3 1 C-2.01 0.67 -1.02 0.34 0 0 Z " fill="#477573" transform="translate(88,77)"/>
<path d="M0 0 C0.33 2.64 0.66 5.28 1 8 C-0.32 8.33 -1.64 8.66 -3 9 C-4.125 4.25 -4.125 4.25 -3 2 C-3.66 1.67 -4.32 1.34 -5 1 C-3 0 -3 0 0 0 Z " fill="#5B5C52" transform="translate(85,172)"/>
<path d="M0 0 C4.95 0 9.9 0 15 0 C14.67 1.32 14.34 2.64 14 4 C12.35 4 10.7 4 9 4 C9 3.34 9 2.68 9 2 C6.03 1.67 3.06 1.34 0 1 C0 0.67 0 0.34 0 0 Z " fill="#A5895D" transform="translate(70,137)"/>
<path d="M0 0 C1.65 0 3.3 0 5 0 C4.34 1.32 3.68 2.64 3 4 C3 3.34 3 2.68 3 2 C2.34 2 1.68 2 1 2 C1 6.29 1 10.58 1 15 C0.67 15 0.34 15 0 15 C0 10.05 0 5.1 0 0 Z M2 4 C2.99 4.99 3.98 5.98 5 7 C4.01 7.66 3.02 8.32 2 9 C2 7.35 2 5.7 2 4 Z " fill="#4E7F76" transform="translate(98,33)"/>
<path d="M0 0 C2.3125 2 2.3125 2 4 4 C2.56359829 4.19573608 1.12580496 4.38127816 -0.3125 4.5625 C-1.11300781 4.66691406 -1.91351563 4.77132812 -2.73828125 4.87890625 C-5 5 -5 5 -8 4 C-8 3.34 -8 2.68 -8 2 C-4.75173326 -0.16551116 -3.76905843 -0.55156953 0 0 Z " fill="#57584B" transform="translate(70,156)"/>
<path d="M0 0 C0.33 0.66 0.66 1.32 1 2 C1.66 2.33 2.32 2.66 3 3 C2.34 4.32 1.68 5.64 1 7 C0.01 6.67 -0.98 6.34 -2 6 C-1.67 7.32 -1.34 8.64 -1 10 C-0.34 10 0.32 10 1 10 C1 10.66 1 11.32 1 12 C-0.875 12.625 -0.875 12.625 -3 13 C-3.66 12.34 -4.32 11.68 -5 11 C-4.34 10.34 -3.68 9.68 -3 9 C-3.33 8.01 -3.66 7.02 -4 6 C-2.68 5.34 -1.36 4.68 0 4 C0 2.68 0 1.36 0 0 Z " fill="#87704C" transform="translate(71,139)"/>
<path d="M0 0 C0 1.65 0 3.3 0 5 C-3.3 5 -6.6 5 -10 5 C-5 0 -5 0 0 0 Z " fill="#9D8E5E" transform="translate(78,116)"/>
<path d="M0 0 C0.33 0.66 0.66 1.32 1 2 C0.01 2.33 -0.98 2.66 -2 3 C-3.20882096 5.00016466 -3.20882096 5.00016466 -4 7 C-5.32 6.67 -6.64 6.34 -8 6 C-8.33 6.66 -8.66 7.32 -9 8 C-8.64005447 5.3364031 -8.28838998 3.41816548 -6.75 1.1875 C-4.41988723 -0.39364795 -2.75498245 -0.22337696 0 0 Z " fill="#4F5447" transform="translate(50,140)"/>
<path d="M0 0 C0 3.33333333 0 6.66666667 0 10 C-0.66 10 -1.32 10 -2 10 C-2.33 11.65 -2.66 13.3 -3 15 C-3.33 15 -3.66 15 -4 15 C-4.34650743 9.34037856 -3.48055609 5.96111218 -1 1 C-0.67 0.67 -0.34 0.34 0 0 Z " fill="#CEB062" transform="translate(22,62)"/>
<path d="M0 0 C0.99 0.33 1.98 0.66 3 1 C2.01 1.495 2.01 1.495 1 2 C1.33 3.65 1.66 5.3 2 7 C-0.64 7 -3.28 7 -6 7 C-6 6.01 -6 5.02 -6 4 C-3.1875 1.75 -3.1875 1.75 0 0 Z " fill="#528C81" transform="translate(89,65)"/>
<path d="M0 0 C0.78375 0.515625 1.5675 1.03125 2.375 1.5625 C3.24125 2.036875 4.1075 2.51125 5 3 C7.30287793 2.30859649 7.30287793 2.30859649 9 1 C8.1875 2.9375 8.1875 2.9375 7 5 C6.01 5.33 5.02 5.66 4 6 C3.34 5.67 2.68 5.34 2 5 C2 4.34 2 3.68 2 3 C1.01 3.33 0.02 3.66 -1 4 C-1.33 3.01 -1.66 2.02 -2 1 C-1.34 0.67 -0.68 0.34 0 0 Z " fill="#41504F" transform="translate(40,155)"/>
<path d="M0 0 C0 0.66 0 1.32 0 2 C-0.99 2.495 -0.99 2.495 -2 3 C-1.01 3.99 -0.02 4.98 1 6 C-0.65 6.66 -2.3 7.32 -4 8 C-4.33 5.69 -4.66 3.38 -5 1 C-2 0 -2 0 0 0 Z " fill="#616050" transform="translate(31,136)"/>
<path d="M0 0 C0.66 0.33 1.32 0.66 2 1 C2 1.66 2 2.32 2 3 C1.34 3 0.68 3 0 3 C-0.33 3.99 -0.66 4.98 -1 6 C-4.0625 7.1875 -4.0625 7.1875 -7 8 C-5.50902342 4.2047869 -3.24299151 2.38957269 0 0 Z " fill="#AEA05C" transform="translate(30,52)"/>
<path d="M0 0 C0.66 0 1.32 0 2 0 C2 0.66 2 1.32 2 2 C2.99 2 3.98 2 5 2 C5.33 3.98 5.66 5.96 6 8 C5.01 7.67 4.02 7.34 3 7 C3 6.34 3 5.68 3 5 C2.01 4.67 1.02 4.34 0 4 C0 2.68 0 1.36 0 0 Z " fill="#878F67" transform="translate(67,101)"/>
<path d="M0 0 C0.33 1.32 0.66 2.64 1 4 C-1.31 5.65 -3.62 7.3 -6 9 C-5.69381595 5.32579134 -5.24228216 4.21864487 -2.4375 1.6875 C-1.633125 1.130625 -0.82875 0.57375 0 0 Z " fill="#CEBC57" transform="translate(32,54)"/>
<path d="M0 0 C0.33 0.66 0.66 1.32 1 2 C1.66 2 2.32 2 3 2 C2.34 4.31 1.68 6.62 1 9 C0.34 9 -0.32 9 -1 9 C-0.67 6.03 -0.34 3.06 0 0 Z " fill="#7C8B61" transform="translate(79,112)"/>
<path d="M0 0 C0.33 0.99 0.66 1.98 1 3 C2.65 3.33 4.3 3.66 6 4 C3.35261084 5.4606285 2.10551666 6 -1 6 C-0.67 4.02 -0.34 2.04 0 0 Z " fill="#626354" transform="translate(79,165)"/>
<path d="M0 0 C0.99 0.33 1.98 0.66 3 1 C3 1.66 3 2.32 3 3 C3.99 3 4.98 3 6 3 C5.67 3.99 5.34 4.98 5 6 C2.525 5.01 2.525 5.01 0 4 C0 2.68 0 1.36 0 0 Z " fill="#6A6752" transform="translate(54,146)"/>
<path d="M0 0 C1.32 0.66 2.64 1.32 4 2 C4 2.66 4 3.32 4 4 C2.35 4.33 0.7 4.66 -1 5 C-1.66 4.01 -2.32 3.02 -3 2 C-2.01 2 -1.02 2 0 2 C0 1.34 0 0.68 0 0 Z " fill="#827558" transform="translate(31,136)"/>
<path d="M0 0 C3.875 0.875 3.875 0.875 5 2 C5.04063832 3.66617115 5.042721 5.33388095 5 7 C4.34 7 3.68 7 3 7 C3 6.01 3 5.02 3 4 C2.34 4 1.68 4 1 4 C0.67 2.68 0.34 1.36 0 0 Z " fill="#567C69" transform="translate(77,96)"/>
<path d="M0 0 C2.6875 0.3125 2.6875 0.3125 5 1 C4.34 2.32 3.68 3.64 3 5 C1.02 4.34 -0.96 3.68 -3 3 C-1.8125 1.4375 -1.8125 1.4375 0 0 Z " fill="#4D5345" transform="translate(32,141)"/>
<path d="M0 0 C0.66 0 1.32 0 2 0 C2 3.66666667 2 7.33333333 2 11 C1.01 11.495 1.01 11.495 0 12 C0 8.04 0 4.08 0 0 Z " fill="#60978D" transform="translate(99,35)"/>
<path d="M0 0 C0.99 0.33 1.98 0.66 3 1 C1.35 2.65 -0.3 4.3 -2 6 C-2.66 5.67 -3.32 5.34 -4 5 C-4 4.34 -4 3.68 -4 3 C-2.68 2.67 -1.36 2.34 0 2 C0 1.34 0 0.68 0 0 Z " fill="#3E4B43" transform="translate(42,146)"/>
<path d="M0 0 C2.31 0 4.62 0 7 0 C7 0.99 7 1.98 7 3 C4.69 3 2.38 3 0 3 C0 2.01 0 1.02 0 0 Z " fill="#668675" transform="translate(75,94)"/>
<path d="M0 0 C0.78375 0.04125 1.5675 0.0825 2.375 0.125 C1.199375 0.99125 1.199375 0.99125 0 1.875 C-2.42547244 3.95397637 -3.48194417 5.21540333 -4.625 8.125 C-4.75 5.25 -4.75 5.25 -4.625 2.125 C-2.625 0.125 -2.625 0.125 0 0 Z " fill="#1D2718" transform="translate(63.625,81.875)"/>
</svg>
